<?xml version="1.0" encoding="UTF-8"?>
<svg xmlns="http://www.w3.org/2000/svg" 
     viewBox="0 0 1924 757"
     width="1924" height="757">
<g fill="#5D2E0F" stroke="none">
<path d="M366 -12Q294 -12 235.5 13.5Q177 39 135.5 84.0Q94 129 71.5 187.5Q49 246 49 312Q49 393 80.5 454.0Q112 515 164.0 555.5Q216 596 278.0 616.0Q340 636 401 636Q475 636 533.5 609.5Q592 583 633.0 538.0Q674 493 695.5 436.0Q717 379 717 319Q717 249 689.0 189.0Q661 129 612.5 84.0Q564 39 500.5 13.5Q437 -12 366 -12ZM400 12Q460 12 507.5 44.0Q555 76 582.5 138.5Q610 201 610 290Q610 383 580.0 455.0Q550 527 494.0 568.5Q438 610 360 610Q263 610 209.5 540.5Q156 471 156 348Q156 276 174.0 214.5Q192 153 224.5 107.0Q257 61 301.5 36.5Q346 12 400 12Z" transform="translate(30.00,492.00) scale(0.500000,-0.500000)"/>
<path d="M317 -6Q313 -8 308 -8Q292 -8 276.0 15.0Q260 38 260 82V258Q260 321 247.5 349.0Q235 377 208 377Q183 377 169.5 362.5Q156 348 150.0 329.5Q144 311 143 298Q140 273 127.5 260.0Q115 247 92 247Q69 247 59.0 257.5Q49 268 49 282Q49 304 69.5 324.5Q90 345 121.5 361.0Q153 377 187.0 386.5Q221 396 247 396Q288 396 314.5 370.0Q341 344 341 288V108Q341 77 351.0 61.0Q361 45 380 45Q396 45 416 54Q421 56 423.0 50.5Q425 45 420 43ZM129 -7Q87 -7 66.5 13.0Q46 33 46 64Q46 92 61.0 109.5Q76 127 103.0 138.5Q130 150 163 162L270 202L273 187L200 156Q188 152 174.0 144.5Q160 137 150.5 125.0Q141 113 141 93Q141 69 157.0 54.5Q173 40 193 40Q202 40 211.0 42.5Q220 45 232 53L286 89L287 74L216 24Q193 8 173.5 0.5Q154 -7 129 -7Z" transform="translate(413.00,492.00) scale(0.500000,-0.500000)"/>
<path d="M23 0Q20 0 20.0 6.0Q20 12 23 12Q56 12 68.0 26.0Q80 40 80 81V592Q80 627 73.5 642.5Q67 658 50 658Q35 658 9 646Q6 645 3.0 651.0Q0 657 3 658L141 724Q144 725 146 725Q151 725 155.5 721.0Q160 717 160 714V81Q160 40 171.5 26.0Q183 12 217 12Q221 12 221.0 6.0Q221 0 217 0Q198 0 173.5 1.0Q149 2 120 2Q92 2 67.0 1.0Q42 0 23 0ZM274 0Q272 0 272.0 6.0Q272 12 274 12Q304 12 312.5 23.0Q321 34 307 53L184 214L244 260L381 81Q410 43 437.0 27.5Q464 12 492 12Q495 12 495.0 6.0Q495 0 492 0Q473 0 448.0 1.0Q423 2 395 2Q355 2 326.5 1.0Q298 0 274 0ZM130 155 125 170 267 299Q299 326 295.0 350.0Q291 374 251 374Q248 374 248.0 380.0Q248 386 251 386Q276 386 302.0 385.0Q328 384 371 384Q411 384 435.0 385.0Q459 386 480 386Q483 386 483.0 380.0Q483 374 480 374Q456 374 423.5 366.0Q391 358 357.0 340.0Q323 322 291 294Z" transform="translate(623.00,492.00) scale(0.500000,-0.500000)"/>
<path d="M23 0Q20 0 20.0 6.0Q20 12 23 12Q56 12 68.0 26.0Q80 40 80 81V592Q80 627 73.5 642.5Q67 658 50 658Q35 658 9 646Q6 645 3.0 650.5Q0 656 3 658L142 724Q144 725 144.5 725.0Q145 725 146 725Q151 725 155.5 721.0Q160 717 160 714V81Q160 40 171.5 26.0Q183 12 217 12Q221 12 221.0 6.0Q221 0 217 0Q198 0 173.5 1.0Q149 2 120 2Q92 2 67.0 1.0Q42 0 23 0ZM292 0Q289 0 289.0 6.0Q289 12 292 12Q325 12 337.0 26.0Q349 40 349 81V230Q349 340 263 340Q231 340 197.0 322.0Q163 304 142 273L137 285Q175 339 219.0 368.0Q263 397 313 397Q368 397 398.5 363.5Q429 330 429 274V81Q429 40 440.5 26.0Q452 12 486 12Q490 12 490.0 6.0Q490 0 486 0Q467 0 442.5 1.0Q418 2 389 2Q361 2 336.0 1.0Q311 0 292 0Z" transform="translate(868.50,492.00) scale(0.500000,-0.500000)"/>
<path d="M229 -12Q166 -12 122.0 15.0Q78 42 55.5 86.5Q33 131 33 181Q33 241 62.0 289.0Q91 337 141.0 366.0Q191 395 254 395Q313 395 346.0 367.0Q379 339 379 280Q379 267 377.0 259.0Q375 251 368 251H286Q289 309 272.5 342.0Q256 375 218 375Q173 375 147.5 333.5Q122 292 122 223Q122 165 140.0 122.5Q158 80 193.0 56.0Q228 32 279 32Q310 32 331.0 40.5Q352 49 376 62Q378 64 381.5 60.0Q385 56 383 53Q347 18 309.5 3.0Q272 -12 229 -12ZM93 250 92 267 314 271V251Z" transform="translate(1121.00,492.00) scale(0.500000,-0.500000)"/>
<path d="M317 -6Q313 -8 308 -8Q292 -8 276.0 15.0Q260 38 260 82V258Q260 321 247.5 349.0Q235 377 208 377Q183 377 169.5 362.5Q156 348 150.0 329.5Q144 311 143 298Q140 273 127.5 260.0Q115 247 92 247Q69 247 59.0 257.5Q49 268 49 282Q49 304 69.5 324.5Q90 345 121.5 361.0Q153 377 187.0 386.5Q221 396 247 396Q288 396 314.5 370.0Q341 344 341 288V108Q341 77 351.0 61.0Q361 45 380 45Q396 45 416 54Q421 56 423.0 50.5Q425 45 420 43ZM129 -7Q87 -7 66.5 13.0Q46 33 46 64Q46 92 61.0 109.5Q76 127 103.0 138.5Q130 150 163 162L270 202L273 187L200 156Q188 152 174.0 144.5Q160 137 150.5 125.0Q141 113 141 93Q141 69 157.0 54.5Q173 40 193 40Q202 40 211.0 42.5Q220 45 232 53L286 89L287 74L216 24Q193 8 173.5 0.5Q154 -7 129 -7Z" transform="translate(1328.00,492.00) scale(0.500000,-0.500000)"/>
<path d="M155 271 148 283Q186 328 212.5 352.5Q239 377 257.0 386.5Q275 396 291 396Q312 396 333.5 381.5Q355 367 355 345Q355 327 344.0 315.0Q333 303 313 303Q295 303 285.0 313.0Q275 323 266.0 332.0Q257 341 241 341Q233 341 224.0 336.5Q215 332 199.0 317.0Q183 302 155 271ZM41 0Q38 0 38.0 6.0Q38 12 41 12Q75 12 86.0 26.0Q97 40 97 81V272Q97 304 90.0 319.0Q83 334 65 334Q56 334 43.0 330.0Q30 326 15 319Q11 318 8.5 323.5Q6 329 9 330L140 394Q145 396 147 396Q157 396 167.5 373.0Q178 350 178 306V81Q178 54 186.0 38.5Q194 23 214.0 17.5Q234 12 270 12Q274 12 274.0 6.0Q274 0 270 0Q244 0 210.5 1.0Q177 2 138 2Q111 2 85.5 1.0Q60 0 41 0Z" transform="translate(1538.00,492.00) scale(0.500000,-0.500000)"/>
<path d="M185 -12Q161 -12 137.5 -4.0Q114 4 98.5 23.0Q83 42 83 77V303Q83 325 78.5 337.0Q74 349 63.0 353.5Q52 358 32 358Q28 358 28.0 366.0Q28 374 32 374Q79 376 108.5 396.5Q138 417 150 455Q151 459 158.0 459.0Q165 459 165 455V110Q165 69 185.5 51.0Q206 33 239 33Q263 33 283.5 42.5Q304 52 318 63Q321 65 325.0 60.5Q329 56 325 53Q288 19 255.5 3.5Q223 -12 185 -12ZM294 336Q254 345 216.5 348.5Q179 352 136 352V376Q177 376 215.5 379.0Q254 382 298 386Q300 386 302.5 379.0Q305 372 305 362Q305 353 301.5 344.0Q298 335 294 336Z" transform="translate(1725.00,492.00) scale(0.500000,-0.500000)"/>
<path d="M302 340 313 353Q375 353 421.5 331.0Q468 309 493.5 271.0Q519 233 519 183Q519 130 491.5 87.5Q464 45 416.5 20.5Q369 -4 310 -4Q280 -4 239.0 -1.0Q198 2 164 2Q130 2 99.0 1.0Q68 0 43 0Q40 0 40.0 6.0Q40 12 43 12Q76 12 94.0 17.0Q112 22 118.5 37.0Q125 52 125 81V544Q125 573 119.0 587.5Q113 602 95.5 607.5Q78 613 44 613Q42 613 42.0 619.0Q42 625 44 625Q69 625 99.5 623.5Q130 622 164 622Q191 622 224.0 625.0Q257 628 283 628Q343 628 381.5 611.5Q420 595 439.0 565.5Q458 536 458 497Q458 441 416.0 399.0Q374 357 302 340ZM264 611Q242 611 228.5 606.5Q215 602 209.5 587.5Q204 573 204 542V346L171 354Q203 352 224.0 351.5Q245 351 248 351Q318 351 349.0 391.0Q380 431 380 489Q380 525 367.5 552.5Q355 580 330.0 595.5Q305 611 264 611ZM294 16Q367 16 400.5 53.5Q434 91 434 159Q434 233 393.0 280.5Q352 328 273 328Q253 329 227.0 328.0Q201 327 174 323L204 334V81Q204 58 210.5 43.5Q217 29 236.5 22.5Q256 16 294 16Z" transform="translate(30.00,680.95) scale(0.161199,-0.161199)"/>
<path d="M233 -13Q172 -13 127.5 16.0Q83 45 59.0 93.5Q35 142 35 198Q35 250 54.5 288.0Q74 326 106.0 350.5Q138 375 176.0 387.0Q214 399 251 399Q313 399 357.0 369.0Q401 339 424.5 292.0Q448 245 448 193Q448 130 418.0 83.5Q388 37 339.5 12.0Q291 -13 233 -13ZM262 6Q311 6 338.5 44.5Q366 83 366 162Q366 229 346.0 277.5Q326 326 292.5 352.5Q259 379 217 379Q168 379 141.5 341.5Q115 304 115 231Q115 168 134.0 116.5Q153 65 186.0 35.5Q219 6 262 6Z" transform="translate(121.88,680.95) scale(0.161199,-0.161199)"/>
<path d="M316 -6Q312 -8 307 -8Q292 -8 278.5 14.5Q265 37 265 79V262Q265 324 249.5 350.5Q234 377 207 377Q182 377 167.0 363.5Q152 350 145.5 332.5Q139 315 136 300Q134 281 124.5 268.0Q115 255 93 255Q73 255 64.0 265.0Q55 275 55 287Q55 308 74.5 327.0Q94 346 124.0 362.0Q154 378 186.5 387.0Q219 396 245 396Q286 396 309.5 369.5Q333 343 333 292V108Q333 75 342.0 59.0Q351 43 371 43Q388 43 415 54Q419 56 421.5 50.5Q424 45 419 43ZM132 -7Q92 -7 71.5 13.0Q51 33 51 63Q51 87 64.0 103.5Q77 120 101.5 133.0Q126 146 161 159L275 201L278 188L187 151Q172 145 159.5 137.0Q147 129 139.0 117.5Q131 106 131 90Q131 66 147.0 50.5Q163 35 186 35Q195 35 205.0 38.0Q215 41 229 49L288 86L290 72L217 24Q194 7 174.5 0.0Q155 -7 132 -7Z" transform="translate(199.58,680.95) scale(0.161199,-0.161199)"/>
<path d="M149 271 143 282Q181 328 206.0 352.0Q231 376 249.0 385.5Q267 395 283 395Q304 395 325.0 382.0Q346 369 346 349Q346 334 336.0 323.5Q326 313 309 313Q293 313 283.5 322.0Q274 331 264.5 339.5Q255 348 239 348Q231 348 221.0 343.0Q211 338 194.5 321.5Q178 305 149 271ZM43 0Q40 0 40.0 6.0Q40 12 43 12Q79 12 90.5 25.5Q102 39 102 81V276Q102 308 94.5 323.0Q87 338 69 338Q59 338 46.0 334.5Q33 331 16 324Q12 322 10.0 327.5Q8 333 11 335L134 394Q138 395 140 395Q149 395 160.0 373.0Q171 351 171 310V81Q171 53 178.5 38.0Q186 23 206.5 17.5Q227 12 266 12Q269 12 269.0 6.0Q269 0 266 0Q240 0 207.0 1.0Q174 2 137 2Q110 2 85.5 1.0Q61 0 43 0Z" transform="translate(267.29,680.95) scale(0.161199,-0.161199)"/>
<path d="M191 -13Q149 -13 113.5 10.5Q78 34 56.5 77.0Q35 120 35 179Q35 238 56.5 279.5Q78 321 112.5 347.0Q147 373 187.0 386.0Q227 399 263 399Q299 399 329.5 388.0Q360 377 386 359L370 287Q347 328 317.0 352.5Q287 377 240 377Q182 377 146.5 336.0Q111 295 111 210Q111 153 127.5 112.0Q144 71 172.0 49.0Q200 27 235 27Q279 27 312.0 51.0Q345 75 375 109L384 101Q363 77 335.0 50.5Q307 24 271.5 5.5Q236 -13 191 -13ZM421 715V112Q421 77 429.0 61.5Q437 46 455 46Q464 46 476.5 48.5Q489 51 504 59Q508 61 510.5 55.5Q513 50 510 48L391 -9Q387 -11 384 -11Q372 -11 362.5 13.0Q353 37 353 81V594Q353 630 346.5 646.0Q340 662 322 662Q313 662 303.0 658.5Q293 655 278 648Q274 647 271.5 653.0Q269 659 272 660L405 724Q407 725 410 725Q413 725 417.0 722.0Q421 719 421 715Z" transform="translate(326.77,680.95) scale(0.161199,-0.161199)"/>
<path d="M412 -12Q326 -12 258.5 13.5Q191 39 144.5 84.0Q98 129 73.5 188.0Q49 247 49 313Q49 388 77.5 447.0Q106 506 158.0 548.5Q210 591 279.0 613.5Q348 636 429 636Q481 636 527.5 627.0Q574 618 605 601Q614 597 615.0 594.0Q616 591 617 578L630 454Q630 451 625.0 450.0Q620 449 618 453Q608 484 591.0 513.5Q574 543 548.0 566.5Q522 590 486.5 604.0Q451 618 404 618Q330 618 270.0 583.5Q210 549 175.0 484.5Q140 420 140 330Q140 266 159.5 207.0Q179 148 217.0 102.0Q255 56 310.5 29.5Q366 3 438 3Q483 3 509.5 14.5Q536 26 548.0 52.5Q560 79 560 125Q560 173 554.0 195.5Q548 218 525.0 225.0Q502 232 450 232Q444 232 444.0 240.0Q444 248 449 248Q515 244 568.5 243.5Q622 243 680 246Q685 246 685.0 239.0Q685 232 680 232Q659 233 649.0 225.5Q639 218 636.5 193.0Q634 168 634 115Q634 82 636.0 66.0Q638 50 639.5 42.5Q641 35 641 27Q641 21 639.0 19.0Q637 17 630 15Q578 4 520.5 -4.0Q463 -12 412 -12Z" transform="translate(558.83,680.95) scale(0.161199,-0.161199)"/>
<path d="M316 -6Q312 -8 307 -8Q292 -8 278.5 14.5Q265 37 265 79V262Q265 324 249.5 350.5Q234 377 207 377Q182 377 167.0 363.5Q152 350 145.5 332.5Q139 315 136 300Q134 281 124.5 268.0Q115 255 93 255Q73 255 64.0 265.0Q55 275 55 287Q55 308 74.5 327.0Q94 346 124.0 362.0Q154 378 186.5 387.0Q219 396 245 396Q286 396 309.5 369.5Q333 343 333 292V108Q333 75 342.0 59.0Q351 43 371 43Q388 43 415 54Q419 56 421.5 50.5Q424 45 419 43ZM132 -7Q92 -7 71.5 13.0Q51 33 51 63Q51 87 64.0 103.5Q77 120 101.5 133.0Q126 146 161 159L275 201L278 188L187 151Q172 145 159.5 137.0Q147 129 139.0 117.5Q131 106 131 90Q131 66 147.0 50.5Q163 35 186 35Q195 35 205.0 38.0Q215 41 229 49L288 86L290 72L217 24Q194 7 174.5 0.0Q155 -7 132 -7Z" transform="translate(674.73,680.95) scale(0.161199,-0.161199)"/>
<path d="M559 0Q557 0 557.0 6.0Q557 12 559 12Q596 12 608.0 25.5Q620 39 620 81V235Q620 349 537 349Q503 349 469.0 328.0Q435 307 411 272L407 284Q447 340 489.0 368.5Q531 397 578 397Q630 397 658.5 367.0Q687 337 687 274V81Q687 39 698.5 25.5Q710 12 747 12Q751 12 751.0 6.0Q751 0 747 0Q729 0 704.5 1.0Q680 2 653 2Q627 2 602.5 1.0Q578 0 559 0ZM300 0Q297 0 297.0 6.0Q297 12 300 12Q336 12 348.0 25.5Q360 39 360 81V235Q360 349 278 349Q243 349 209.5 328.0Q176 307 152 272L148 284Q188 340 230.0 368.5Q272 397 318 397Q370 397 399.0 367.5Q428 338 428 279V81Q428 39 439.5 25.5Q451 12 488 12Q491 12 491.0 6.0Q491 0 488 0Q469 0 445.0 1.0Q421 2 394 2Q367 2 342.5 1.0Q318 0 300 0ZM43 0Q40 0 40.0 6.0Q40 12 43 12Q79 12 90.5 25.5Q102 39 102 81V276Q102 308 94.5 323.0Q87 338 69 338Q59 338 46.0 334.5Q33 331 16 324Q12 322 10.0 327.5Q8 333 11 335L134 394Q138 395 140 395Q149 395 160.0 373.0Q171 351 171 310V81Q171 39 182.5 25.5Q194 12 231 12Q234 12 234.0 6.0Q234 0 231 0Q212 0 188.0 1.0Q164 2 137 2Q110 2 85.5 1.0Q61 0 43 0Z" transform="translate(742.44,680.95) scale(0.161199,-0.161199)"/>
<path d="M224 -12Q162 -12 120.0 15.5Q78 43 56.5 87.0Q35 131 35 181Q35 241 63.5 289.5Q92 338 141.0 366.5Q190 395 250 395Q308 395 339.5 366.0Q371 337 371 281Q371 268 368.5 260.5Q366 253 359 253H290Q294 313 274.5 344.0Q255 375 216 375Q167 375 139.5 333.0Q112 291 112 220Q112 163 130.0 119.5Q148 76 183.0 52.0Q218 28 268 28Q301 28 322.5 37.0Q344 46 367 59Q369 61 372.5 56.5Q376 52 374 49Q338 16 301.0 2.0Q264 -12 224 -12ZM89 252 88 267 312 271V253Z" transform="translate(866.24,680.95) scale(0.161199,-0.161199)"/>
<path d="M119 114 129 602 154 600 144 114Q143 62 162.5 37.0Q182 12 228 12Q231 12 231.0 6.0Q231 0 228 0Q206 0 183.0 1.0Q160 2 131 2Q104 2 80.0 1.0Q56 0 35 0Q33 0 33.0 6.0Q33 12 35 12Q77 12 97.5 37.0Q118 62 119 114ZM819 12Q821 12 821.0 6.0Q821 0 819 0Q794 0 763.0 1.0Q732 2 697 2Q664 2 635.0 1.0Q606 0 583 0Q580 0 580.0 6.0Q580 12 583 12Q632 12 646.0 25.0Q660 38 657 81L637 552L676 608L417 7Q416 3 409.5 3.0Q403 3 401 7L140 542Q105 613 42 613Q40 613 40.0 619.0Q40 625 42 625Q60 625 79.5 624.0Q99 623 113 623Q132 623 147.5 624.0Q163 625 171 625Q185 625 193.0 615.5Q201 606 217 573L444 112L407 48L648 600Q653 612 660.5 618.5Q668 625 678 625Q685 625 695.5 624.0Q706 623 720 623Q748 623 767.0 624.0Q786 625 806 625Q808 625 808.0 619.0Q808 613 806 613Q758 613 736.0 597.5Q714 582 715 541L736 81Q738 52 744.0 37.0Q750 22 767.0 17.0Q784 12 819 12Z" transform="translate(1082.02,680.95) scale(0.161199,-0.161199)"/>
<path d="M316 -6Q312 -8 307 -8Q292 -8 278.5 14.5Q265 37 265 79V262Q265 324 249.5 350.5Q234 377 207 377Q182 377 167.0 363.5Q152 350 145.5 332.5Q139 315 136 300Q134 281 124.5 268.0Q115 255 93 255Q73 255 64.0 265.0Q55 275 55 287Q55 308 74.5 327.0Q94 346 124.0 362.0Q154 378 186.5 387.0Q219 396 245 396Q286 396 309.5 369.5Q333 343 333 292V108Q333 75 342.0 59.0Q351 43 371 43Q388 43 415 54Q419 56 421.5 50.5Q424 45 419 43ZM132 -7Q92 -7 71.5 13.0Q51 33 51 63Q51 87 64.0 103.5Q77 120 101.5 133.0Q126 146 161 159L275 201L278 188L187 151Q172 145 159.5 137.0Q147 129 139.0 117.5Q131 106 131 90Q131 66 147.0 50.5Q163 35 186 35Q195 35 205.0 38.0Q215 41 229 49L288 86L290 72L217 24Q194 7 174.5 0.0Q155 -7 132 -7Z" transform="translate(1217.75,680.95) scale(0.161199,-0.161199)"/>
<path d="M312 0Q309 0 309.0 6.0Q309 12 312 12Q348 12 359.5 25.5Q371 39 371 81V238Q371 295 350.0 322.5Q329 350 283 350Q248 350 212.5 329.5Q177 309 152 273L148 285Q189 341 232.5 370.0Q276 399 324 399Q379 399 409.5 367.0Q440 335 440 276V81Q440 39 451.5 25.5Q463 12 500 12Q503 12 503.0 6.0Q503 0 500 0Q481 0 457.0 1.0Q433 2 406 2Q379 2 354.5 1.0Q330 0 312 0ZM43 0Q40 0 40.0 6.0Q40 12 43 12Q79 12 90.5 25.5Q102 39 102 81V276Q102 308 94.5 323.0Q87 338 69 338Q59 338 46.0 334.5Q33 331 16 324Q12 322 10.0 327.5Q8 333 11 335L134 394Q138 395 140 395Q149 395 160.0 373.0Q171 351 171 310V81Q171 39 182.5 25.5Q194 12 231 12Q234 12 234.0 6.0Q234 0 231 0Q212 0 188.0 1.0Q164 2 137 2Q110 2 85.5 1.0Q61 0 43 0Z" transform="translate(1285.46,680.95) scale(0.161199,-0.161199)"/>
<path d="M185 -9Q134 -9 104.5 23.5Q75 56 75 114V265Q75 303 68.5 320.0Q62 337 45 337Q32 337 14 328Q10 326 7.5 332.0Q5 338 9 339L127 394Q129 395 131 395Q135 395 139.0 392.0Q143 389 143 385V152Q143 94 163.5 66.5Q184 39 226 39Q262 39 297.5 60.0Q333 81 358 115L363 104Q321 48 277.5 19.5Q234 -9 185 -9ZM407 385V110Q407 76 414.5 61.0Q422 46 440 46Q449 46 460.5 49.5Q472 53 489 60Q493 62 495.5 56.5Q498 51 495 49L371 -10Q369 -11 366 -11Q358 -11 348.5 11.5Q339 34 339 76V265Q339 303 332.0 320.0Q325 337 309 337Q296 337 277 328Q274 326 271.5 332.0Q269 338 273 339L391 394Q393 395 395 395Q398 395 402.5 392.0Q407 389 407 385Z" transform="translate(1369.28,680.95) scale(0.161199,-0.161199)"/>
<path d="M30 0Q27 0 27.0 6.0Q27 12 30 12Q72 12 84.0 25.0Q96 38 96 81V306Q96 330 91.0 341.0Q86 352 71.0 355.5Q56 359 26 359Q23 359 23.0 366.0Q23 373 26 373Q66 373 80.0 383.0Q94 393 95 418Q100 584 156.5 655.0Q213 726 319 726Q373 726 404.5 710.5Q436 695 436 671Q436 653 423.5 643.5Q411 634 396 634Q379 634 370.0 642.5Q361 651 351 665Q339 684 324.0 695.5Q309 707 283 707Q232 707 198.5 644.0Q165 581 165 439V81Q165 52 171.5 37.0Q178 22 198.5 17.0Q219 12 261 12Q264 12 264.0 6.0Q264 0 261 0Q227 0 195.0 1.0Q163 2 130 2Q102 2 76.5 1.0Q51 0 30 0ZM285 337Q246 346 210.5 349.0Q175 352 135 352V375Q173 375 210.0 378.0Q247 381 288 385Q291 385 293.0 378.0Q295 371 295 362Q295 354 291.5 345.0Q288 336 285 337Z" transform="translate(1449.40,680.95) scale(0.161199,-0.161199)"/>
<path d="M316 -6Q312 -8 307 -8Q292 -8 278.5 14.5Q265 37 265 79V262Q265 324 249.5 350.5Q234 377 207 377Q182 377 167.0 363.5Q152 350 145.5 332.5Q139 315 136 300Q134 281 124.5 268.0Q115 255 93 255Q73 255 64.0 265.0Q55 275 55 287Q55 308 74.5 327.0Q94 346 124.0 362.0Q154 378 186.5 387.0Q219 396 245 396Q286 396 309.5 369.5Q333 343 333 292V108Q333 75 342.0 59.0Q351 43 371 43Q388 43 415 54Q419 56 421.5 50.5Q424 45 419 43ZM132 -7Q92 -7 71.5 13.0Q51 33 51 63Q51 87 64.0 103.5Q77 120 101.5 133.0Q126 146 161 159L275 201L278 188L187 151Q172 145 159.5 137.0Q147 129 139.0 117.5Q131 106 131 90Q131 66 147.0 50.5Q163 35 186 35Q195 35 205.0 38.0Q215 41 229 49L288 86L290 72L217 24Q194 7 174.5 0.0Q155 -7 132 -7Z" transform="translate(1498.56,680.95) scale(0.161199,-0.161199)"/>
<path d="M232 -12Q163 -12 119.5 17.5Q76 47 55.5 92.5Q35 138 35 185Q35 235 55.0 274.0Q75 313 107.5 340.0Q140 367 180.0 381.0Q220 395 259 395Q287 395 314.5 387.0Q342 379 360.0 364.5Q378 350 378 330Q378 316 367.5 304.5Q357 293 337 293Q318 293 306.0 304.0Q294 315 287 332Q278 352 265.0 363.5Q252 375 224 375Q171 375 141.5 331.0Q112 287 112 216Q112 166 129.0 122.5Q146 79 182.0 53.0Q218 27 276 27Q304 27 328.5 34.5Q353 42 376 58Q379 60 382.5 56.0Q386 52 383 50Q349 19 313.0 3.5Q277 -12 232 -12Z" transform="translate(1566.27,680.95) scale(0.161199,-0.161199)"/>
<path d="M187 -12Q163 -12 140.0 -4.5Q117 3 102.5 22.0Q88 41 88 73V304Q88 327 84.0 339.0Q80 351 69.0 355.0Q58 359 36 359Q33 359 33.0 366.5Q33 374 36 374Q80 375 107.5 395.5Q135 416 142 452Q143 455 150.0 455.0Q157 455 157 452V107Q157 66 177.5 47.0Q198 28 234 28Q259 28 279.5 37.0Q300 46 313 56Q317 59 320.5 54.5Q324 50 320 47Q283 16 252.0 2.0Q221 -12 187 -12ZM290 337Q250 346 213.0 349.0Q176 352 135 352V375Q175 375 212.5 378.0Q250 381 293 385Q296 385 298.0 378.0Q300 371 300 362Q300 354 297.0 345.0Q294 336 290 337Z" transform="translate(1633.16,680.95) scale(0.161199,-0.161199)"/>
<path d="M185 -9Q134 -9 104.5 23.5Q75 56 75 114V265Q75 303 68.5 320.0Q62 337 45 337Q32 337 14 328Q10 326 7.5 332.0Q5 338 9 339L127 394Q129 395 131 395Q135 395 139.0 392.0Q143 389 143 385V152Q143 94 163.5 66.5Q184 39 226 39Q262 39 297.5 60.0Q333 81 358 115L363 104Q321 48 277.5 19.5Q234 -9 185 -9ZM407 385V110Q407 76 414.5 61.0Q422 46 440 46Q449 46 460.5 49.5Q472 53 489 60Q493 62 495.5 56.5Q498 51 495 49L371 -10Q369 -11 366 -11Q358 -11 348.5 11.5Q339 34 339 76V265Q339 303 332.0 320.0Q325 337 309 337Q296 337 277 328Q274 326 271.5 332.0Q269 338 273 339L391 394Q393 395 395 395Q398 395 402.5 392.0Q407 389 407 385Z" transform="translate(1687.65,680.95) scale(0.161199,-0.161199)"/>
<path d="M149 271 143 282Q181 328 206.0 352.0Q231 376 249.0 385.5Q267 395 283 395Q304 395 325.0 382.0Q346 369 346 349Q346 334 336.0 323.5Q326 313 309 313Q293 313 283.5 322.0Q274 331 264.5 339.5Q255 348 239 348Q231 348 221.0 343.0Q211 338 194.5 321.5Q178 305 149 271ZM43 0Q40 0 40.0 6.0Q40 12 43 12Q79 12 90.5 25.5Q102 39 102 81V276Q102 308 94.5 323.0Q87 338 69 338Q59 338 46.0 334.5Q33 331 16 324Q12 322 10.0 327.5Q8 333 11 335L134 394Q138 395 140 395Q149 395 160.0 373.0Q171 351 171 310V81Q171 53 178.5 38.0Q186 23 206.5 17.5Q227 12 266 12Q269 12 269.0 6.0Q269 0 266 0Q240 0 207.0 1.0Q174 2 137 2Q110 2 85.5 1.0Q61 0 43 0Z" transform="translate(1767.76,680.95) scale(0.161199,-0.161199)"/>
<path d="M224 -12Q162 -12 120.0 15.5Q78 43 56.5 87.0Q35 131 35 181Q35 241 63.5 289.5Q92 338 141.0 366.5Q190 395 250 395Q308 395 339.5 366.0Q371 337 371 281Q371 268 368.5 260.5Q366 253 359 253H290Q294 313 274.5 344.0Q255 375 216 375Q167 375 139.5 333.0Q112 291 112 220Q112 163 130.0 119.5Q148 76 183.0 52.0Q218 28 268 28Q301 28 322.5 37.0Q344 46 367 59Q369 61 372.5 56.5Q376 52 374 49Q338 16 301.0 2.0Q264 -12 224 -12ZM89 252 88 267 312 271V253Z" transform="translate(1827.25,680.95) scale(0.161199,-0.161199)"/>
</g>
</svg>